<?xml version="1.0" encoding="utf-8"?>
<!-- Generator: Adobe Illustrator 16.0.0, SVG Export Plug-In . SVG Version: 6.00 Build 0)  -->
<!DOCTYPE svg PUBLIC "-//W3C//DTD SVG 1.1//EN" "http://www.w3.org/Graphics/SVG/1.1/DTD/svg11.dtd">
<svg version="1.1" id="Capa_1" xmlns="http://www.w3.org/2000/svg" xmlns:xlink="http://www.w3.org/1999/xlink" x="0px" y="0px"
	 width="1080px" height="1920px" viewBox="0 0 1080 1920" enable-background="new 0 0 1080 1920" xml:space="preserve">
<circle fill="#EAEAEA" cx="626.928" cy="510.665" r="348.388"/>
<path fill="#D8D8D8" d="M359.56,503.68c2.722-104.185,64.675-192.885,152.783-234.738l37.595-98.13
	C398.092,205.094,282.911,338.836,278.66,501.566c-2.097,80.259,23.126,154.883,67.203,214.97l38.084-93.957l0.007-0.021
	C367.3,586.467,358.452,546.103,359.56,503.68z"/>
<path fill="#E0E0E0" d="M292.678,721.93c44.229,136.598,170.739,236.958,322.436,240.921
	c172.564,4.509,319.094-117.257,351.033-281.247L292.678,721.93z"/>
<path fill="#E0E0E0" d="M147.986,1527.514c52.569-111.729,206.718-198.354,393.075-208.856
	c211.99-11.944,393.637,78.677,435.021,208.708L147.986,1527.514z"/>
<path fill="#E0E0E0" d="M372.299,1351.156c-76.287,33.083-88.858-13.906-85.133-156.494c2.414-92.39,32.532-179.313,89.642-242.237
	c28.692-31.613,36.21-60.739,86.457-28.775c0,0-84.793-269.671-170.141-201.104C156.84,832.037,66.498,998.363,61.524,1188.767
	c-3.235,123.823,28.972,240.139,87.171,338.766L372.299,1351.156z"/>
<circle fill="#D8D8D8" cx="596.01" cy="526.164" r="183.924"/>
</svg>
